PathFileType	4	(X/Y/Z)	Patient4_TMGait_0pt6_02_right_05.trc.trc
DataRate	CameraRate	NumFrames	NumMarkers	Units	OrigDataRate	OrigDataStartFrame	OrigNumFrames
85.889570552147	85.889570552147	4	33	mm	85.889570552147	1	       141
Frame#	Time	Sacral			L.Shoulder			Chest			R.Shoulder			Neck			R.ASIS			L.ASIS			R.Thigh.Superior			R.Thigh.Lateral			R.Thigh.Inferior			R.Patella			L.Thigh.Superior			L.Thigh.Lateral			L.Thigh.Inferior			L.Patella			L.Shank.Superior			L.Shank.Lateral			L.Shank.Inferior			R.Shank.Superior			R.Shank.Lateral			R.Shank.Inferior			R.Heel			R.Midfoot.Superior			R.Midfoot.Lateral			R.Toe			L.Heel			L.Midfoot.Lateral			L.Midfoot.Superior			L.Toe			L.Elbow			L.Wrist			R.Elbow			R.Wrist			
		X1	Y1	Z1	X2	Y2	Z2	X3	Y3	Z3	X4	Y4	Z4	X5	Y5	Z5	X6	Y6	Z6	X7	Y7	Z7	X8	Y8	Z8	X9	Y9	Z9	X10	Y10	Z10	X11	Y11	Z11	X12	Y12	Z12	X13	Y13	Z13	X14	Y14	Z14	X15	Y15	Z15	X16	Y16	Z16	X17	Y17	Z17	X18	Y18	Z18	X19	Y19	Z19	X20	Y20	Z20	X21	Y21	Z21	X22	Y22	Z22	X23	Y23	Z23	X24	Y24	Z24	X25	Y25	Z25	X26	Y26	Z26	X27	Y27	Z27	X28	Y28	Z28	X29	Y29	Z29	X30	Y30	Z30	X31	Y31	Z31	X32	Y32	Z32	X33	Y33	Z33	

1	5.490000000000	691.601150763761	1015.524831805749	467.823839920756	877.528695256297	1447.281611576157	306.468731130157	975.667998500452	1369.614768885417	466.223595219732	886.706598524324	1437.012508902900	639.680260132852	860.937348366816	1501.039176800666	460.729751963477	915.007185421203	948.800423707543	590.451734466985	913.061138565705	966.557060666841	316.219607668889	1000.898300899840	782.428814233142	555.210316804789	967.038109088791	660.230580840143	625.545558740297	1054.592837202388	623.108735184442	541.490369945080	1076.506963891672	508.007536286703	561.390892191061	950.667133387773	748.035991393518	352.314006577343	855.136720755442	636.314193276023	294.608192127530	929.975775997212	555.658673480379	364.850005591730	925.036271010621	486.274107589051	378.096166771539	897.238966620825	415.492973387258	369.040641933804	806.550381464982	302.704590796504	318.171710264957	850.030415770545	192.254655236678	394.193200138337	995.801030358434	435.659891622649	571.963435337441	873.191513178743	403.498896609182	634.126190807947	852.619034047148	294.572999199505	587.738750057853	652.830529347359	257.824033331900	561.172444377774	806.335370682209	165.938863482649	600.012817907459	696.810353073885	182.286665886678	630.308288882408	847.677493089977	40.960655540577	617.587527558659	715.656818588720	37.929471609950	435.658752496960	790.089810957806	35.592414790184	355.248899364648	873.667918654263	96.094602004204	382.834196587832	1002.402068116629	41.028494015656	354.062052712837	861.837445412931	1112.570338835915	149.296241411385	1094.700035651533	1008.230626898429	176.790600284741	794.330470249723	1096.101857366414	738.708430704405	818.651405498045	836.594345941964	754.061617981978	
2	5.501642857143	690.669978040104	1015.926477912991	467.153000412151	879.172682956694	1447.557572467314	306.195804057697	975.627117871367	1369.661162897641	466.761184476448	885.385560025837	1437.468528746611	639.338463754883	860.923942253064	1501.327088686299	460.401911088669	913.390402920957	949.686700391794	590.672246726052	912.244100782848	966.637736165420	316.454262565365	1001.234361107660	786.417915906826	554.508549740491	970.357050011663	663.567025376814	624.988906682814	1057.877602125209	628.176541111298	540.435162765371	1082.350345367194	513.921228569063	560.486062459389	947.596156158458	747.124324745539	352.996249273363	851.049716334685	636.474625611811	294.396113946404	924.377347745675	554.989646146452	365.046743961774	918.730592001568	485.868794544650	378.036751353371	890.888640275738	415.298026051420	368.954067247479	799.947061300281	302.805576267412	317.959393122096	842.951927922408	192.233277118883	394.080803456754	1004.668785288813	439.177706623655	570.897821557957	883.548301043312	401.587961065833	632.389865550848	868.147094617209	292.100456752370	585.734444149224	670.359296645736	244.906151684130	558.359430346520	828.153302905751	162.828956948430	597.698416539800	718.383894462650	173.072240101578	628.115113127967	876.625840023111	41.346164117263	616.764696063540	708.262207148648	38.016449362437	435.579729832701	782.717497712692	35.629264851549	355.204590995735	866.332730873759	96.114073727994	382.728038897093	995.019979326057	40.954118197489	354.021775360291	866.232442594014	1112.798877636498	149.450391787399	1101.727814889508	1017.176160872683	178.912791027857	786.526816589762	1098.609226161611	736.881203359641	805.807064519559	838.727011183191	750.987813728011	
3	5.513285714286	689.723426496964	1016.306899533741	466.495131192174	880.789458984493	1447.778888675943	305.932888792801	975.585052128297	1369.668980167931	467.295427756237	884.095691530158	1437.888594852204	639.006732989016	860.908000740511	1501.571790289916	460.090141878518	911.786858505629	950.515801097577	590.907353617325	911.391913937534	966.643983881805	316.678340807768	1001.512889078326	790.273061287655	553.855297166450	973.518968689111	666.770637335350	624.461042676809	1061.012221238489	633.059712873747	539.448804116912	1087.964395853467	519.679661374399	559.671597195037	944.580873592859	746.212944920517	353.670755512152	847.043032301062	636.613916567692	294.188315746224	918.889151537796	554.317792980851	365.236607596495	912.545042738611	485.457847905588	377.978095130210	884.650559212709	415.089368375534	368.872943959557	793.446386261712	302.895130036555	317.756786512082	835.960889844340	192.198230004410	393.979040722892	1013.332810676929	442.558461254256	569.905367360154	893.782576769322	399.497702219178	630.760798955075	883.572861098167	289.505458704106	583.834042474020	687.913372998834	231.869699516537	555.674202374485	849.882542642065	159.632207524500	595.516449352306	739.924160786352	163.780154936204	626.065987765244	905.424982163502	41.710765505956	616.067856313063	700.959817962753	38.102152402275	435.497141985867	775.432964034822	35.662667149586	355.161222586736	859.083861146577	96.132664736282	382.626290580573	987.727819990703	40.881256745135	353.980373959636	870.573749227311	1112.964557432196	149.624136475892	1108.599831166782	1025.931874487203	181.021440712564	778.868990513350	1101.061818024029	735.064342680106	793.254782321164	840.828322861615	747.973298854716	
4	5.524928571429	688.753240626854	1016.636934108672	465.868018720799	882.355789816523	1447.887891197584	305.694121080787	975.546025546347	1369.593893909237	467.826903326095	882.875535323204	1438.231467331612	638.700511710603	860.889964787577	1501.726429001145	459.814096857006	910.212184158378	951.227464769888	591.177600526046	910.483538632784	966.514761429747	316.898375703256	1001.646722665635	793.805079671923	553.320616073310	976.291250762092	669.667188562386	624.019574776547	1063.767626202887	637.512673112672	538.626506585455	1093.043292535386	525.101284895088	559.035436673936	941.652869500372	745.291128260334	354.336059061102	843.165247674493	636.706463223770	293.993319249931	913.580023092875	553.630317778746	365.418131983352	906.551304229575	485.024615887400	377.925737668580	878.585430308710	414.847411639077	368.805451194537	787.093577272940	302.961930842828	317.576520419185	829.081598935735	192.133004601353	393.899485056384	1021.566025919064	445.661400223904	569.067866076993	903.849261792736	397.026481008392	629.377927455008	898.911637962596	286.683624802566	582.151849569461	705.760153512203	218.545915146952	553.283648924863	871.633756596160	156.313639241151	593.591211880918	761.664642794273	154.330548556792	624.315568011717	934.158404380881	42.167927631977	615.576769632969	693.768154862877	38.185573230725	435.409751589125	768.250602191585	35.689542903714	355.120954417605	851.935172142793	96.146363747502	382.535447650448	980.540671925160	40.809727758198	353.937948569599	874.832959587216	1112.996981684992	149.855199531289	1115.194982658833	1034.312950314506	183.125549021162	771.515724067723	1103.391154482709	733.271709984553	781.283677580121	842.848749189682	745.065828330677	
